<?xml version="1.0" encoding="UTF-8"?>
<svg width="609px" height="746px" viewBox="0 0 609 746" version="1.1" xmlns="http://www.w3.org/2000/svg" xmlns:xlink="http://www.w3.org/1999/xlink">
    <!-- Generator: Sketch 50.2 (55047) - http://www.bohemiancoding.com/sketch -->
    <title>LogoWhite</title>
    <desc>Created with Sketch.</desc>
    <defs></defs>
    <g id="Page-1" stroke="none" stroke-width="1" fill="none" fill-rule="evenodd">
        <g id="LogoWhite" fill-rule="nonzero">
            <path d="M58.2178319,0.601756576 C43.2145768,1.348024 27.6940107,3.60141517 11.1152525,8.21949999 C5.79439404,9.65382805 1.5784967,14.5434701 0.934029103,20.0289499 C0.284673728,25.5145539 3.24071446,31.2521143 8.0768886,33.8983391 C20.7677519,40.8377478 35.2871912,64.8253403 45.6284459,102.007213 C55.9695767,139.190326 63.0346534,188.434101 67.7698465,243.231834 C77.238744,352.817376 77.3211168,484.767619 77.3211168,592.695782 C79.7635187,607.015492 91.7909339,607.766027 103.149443,608.798168 C143.050608,611.628118 186.721817,611.826855 223.18789,611.84137 C264.868009,611.036945 303.65888,612.190275 343.439712,608.798168 C357.405864,608.017971 365.357813,605.653116 369.054663,592.695782 C369.054663,560.833403 370.421256,530.266163 372.529205,500.652908 C389.131534,497.944035 416.307101,494.057629 443.075766,484.332185 C474.14295,473.041162 506.358886,452.49958 514.707812,414.919489 C514.89196,413.91639 514.964644,412.893914 514.925877,411.871449 L514.925877,181.872813 C514.925877,153.523682 502.20524,129.411042 481.929632,115.508157 C461.867399,104.391681 442.32868,100.994921 423.323399,102.44885 C424.021211,89.4329614 424.626973,76.450568 424.626973,63.4979479 C424.660895,55.7493261 417.125469,48.8482505 409.430191,49.5702527 C307.506308,59.7903054 242.737005,41.4581487 185.634323,24.1103713 C138.066536,11.4815357 101.872144,-0.835920986 58.2170628,0.613045614 L58.2178319,0.601756576 Z M177.601267,50.6506508 C232.002023,67.1748247 299.068831,85.1343191 396.18681,78.0693664 C393.342221,202.114802 355.863856,335.112071 344.742293,502.165019 L104.893661,502.165019 C104.423603,415.743093 102.649996,322.892619 95.5604801,240.829998 C90.7436586,185.086963 83.479597,134.452527 72.3335951,94.3826462 C65.1180392,68.4426705 56.3614675,47.0046638 44.3343004,30.8427316 C49.5146041,30.1303809 55.1794681,28.4876646 60.1798915,28.230746 C100.701334,26.2196846 145.434456,40.8595816 177.610695,50.6425872 L177.601267,50.6506508 Z M466.290494,138.56 C479.011131,147.282581 487.128073,161.471785 487.128073,181.862764 L487.128073,409.901326 C481.172423,434.125616 460.194414,448.378336 433.730924,457.992627 C412.990109,465.527997 392.123997,469.060722 374.906354,471.920322 C375.764085,462.499806 376.51039,453.065148 377.513501,443.847835 C392.977002,441.046913 411.033259,437.887347 428.307968,431.878477 C439.264538,428.069606 449.717442,423.0832 458.261135,415.557754 C466.804455,408.03206 473.239579,396.872536 473.239579,384.005514 L473.239579,181.857306 C470.884512,158.998865 452.227082,140.443905 431.564421,140.080423 C429.214193,140.080423 425.221099,139.988351 420.496326,140.734616 C420.801614,137.55086 421.092375,134.338074 421.363746,131.159031 C436.487335,128.096353 454.025041,130.354607 466.295357,138.553847 L466.290494,138.56 Z M431.559955,167.936309 C439.773785,169.661423 442.938189,174.386196 445.452915,181.864005 L445.452915,384.012213 C445.452915,388.489867 444.071807,390.917631 439.807404,394.673283 C435.543001,398.42881 428.201405,402.417066 419.188163,405.552317 C407.630669,409.57444 394.19721,412.220293 380.982833,414.691724 C391.954041,327.179351 407.736612,248.383109 417.017194,172.721745 C420.864895,168.016325 426.311669,168.263443 431.560204,167.933952 L431.559955,167.936309 Z M104.882992,530.016687 L343.220134,530.016687 C342.430249,546.774085 341.863216,563.691515 341.698471,581.151066 L340.831051,581.151066 C301.79207,583.661202 258.911094,583.961664 223.18191,583.981017 C182.723736,583.312284 142.831254,584.048859 105.101057,581.151066 C105.101057,564.781961 104.92661,547.229369 104.882992,530.016687 Z" id="Shape" fill="#FFFFFF"></path>
            <g id="wheels" transform="translate(27.000000, 566.000000)">
                <path d="M381.942178,72.9051904 L380.199978,72.9051904 C379.617948,70.1668904 378.953878,67.5106904 378.043778,64.9363904 L379.535978,64.1043604 C383.520378,61.7801604 384.848478,56.7176604 382.606278,52.7333604 L373.891478,37.6283604 C371.567278,33.6439604 366.504778,32.3158604 362.520478,34.6400604 L360.942378,35.5541204 C359.118178,33.5619204 357.207978,31.6518204 355.133778,29.8275204 L356.047838,28.1673204 C358.372038,24.1829204 357.043928,19.1204204 353.059538,16.7963204 L337.954538,8.08152043 C333.970138,5.83932043 328.907638,7.16746043 326.583538,11.1518204 L325.587448,12.8120204 C323.013248,11.9839004 320.442948,11.3198204 317.786648,10.8198204 L317.786648,8.74562043 C317.786648,4.17922043 314.052248,0.44482043 309.485848,0.44482043 L292.055848,0.44482043 C287.489448,0.44482043 283.755048,4.17922043 283.755048,8.74562043 L283.755048,10.8198204 C281.098848,11.3159104 278.524548,12.0659204 275.954248,12.8940204 L274.958158,11.1518204 C272.633958,7.16742043 267.571458,5.83932043 263.587158,8.08152043 L248.482158,16.7963204 C244.579858,19.1205204 243.169658,24.1830204 245.493858,28.1673204 L246.489948,29.9095204 C244.415748,31.6517204 242.505548,33.5618204 240.681348,35.6361204 L239.021148,34.6400304 C235.036748,32.3158304 229.974248,33.6439404 227.650148,37.6283304 L218.935348,52.7333304 C216.693148,56.7177304 218.021288,61.7802304 222.005648,64.1043304 L223.583748,65.0183904 C222.755628,67.5925904 222.091548,70.2488904 221.509548,72.9050904 L219.681448,72.9050904 C215.033048,72.9050904 211.380648,76.6394904 211.380648,81.2058904 L211.380648,98.6358904 C211.380648,103.20229 215.032948,106.93669 219.681448,106.93669 L221.509548,106.93669 C222.091578,109.59289 222.755648,112.24919 223.665748,114.81949 L222.005548,115.73355 C218.021148,118.05775 216.693048,123.12025 218.935248,127.10455 L227.650048,142.20955 C229.974248,146.11185 235.036748,147.52205 239.021048,145.19785 L240.763248,144.20176 C242.587448,146.27596 244.497648,148.18616 246.489848,149.92836 L245.493758,151.67056 C243.169558,155.65496 244.579698,160.71746 248.482058,163.04156 L263.587058,171.75636 C267.571458,173.99856 272.633958,172.67042 274.958058,168.68606 L276.036158,166.85796 C278.524458,167.68608 281.098658,168.43606 283.754958,168.93216 L283.754958,171.00636 C283.754958,175.65476 287.489358,179.30716 292.055758,179.30716 L309.485758,179.30716 C314.052158,179.30716 317.786558,175.65486 317.786558,171.00636 L317.786558,168.93216 C320.442758,168.43607 323.017058,167.76806 325.587358,166.93996 L326.583448,168.68216 C328.907648,172.66656 333.970148,173.99466 337.954448,171.75246 L353.059448,163.03766 C357.043848,160.71346 358.371948,155.65096 356.047748,151.66666 L355.051658,149.92446 C357.125858,148.18226 359.036058,146.35416 360.860258,144.27996 L362.520458,145.19402 C366.504858,147.51822 371.567358,146.10808 373.891458,142.20572 L382.606258,127.10072 C384.848458,123.11632 383.520318,118.05382 379.535958,115.72972 L378.043758,114.89769 C378.957818,112.32349 379.621858,109.66719 380.199958,106.92889 L381.942158,106.92889 C386.508558,106.92889 390.242958,103.19449 390.242958,98.6280904 L390.242958,81.1980904 C390.242958,76.6394904 386.508558,72.9050904 381.942158,72.9050904 L381.942178,72.9051904 Z M300.766178,128.43219 C279.352178,128.43219 261.922178,111.16619 261.922178,89.8381904 C261.922178,68.5881904 279.352178,51.2401904 300.766178,51.2401904 C322.180178,51.2401904 339.610178,68.5881904 339.610178,89.8381904 C339.610178,111.16619 322.180178,128.43219 300.766178,128.43219 Z" id="Shape" fill="#FF8300"></path>
                <path d="M300.742178,59.5451904 C283.930178,59.5451904 270.258178,73.1391904 270.258178,89.8541904 C270.258178,106.56919 283.934178,120.16319 300.742178,120.16319 C317.601178,120.16319 331.324178,106.56919 331.324178,89.8541904 C331.324178,73.1391904 317.601178,59.5451904 300.742178,59.5451904 Z" id="Shape" fill="#FFFFFF"></path>
                <path d="M171.372178,72.9051904 L169.629978,72.9051904 C169.047948,70.1668904 168.383878,67.5106904 167.473778,64.9363904 L168.965978,64.1043604 C172.950378,61.7801604 174.278478,56.7176604 172.036278,52.7333604 L163.321478,37.6283604 C160.997278,33.6439604 155.934778,32.3158604 151.950478,34.6400604 L150.372378,35.5541204 C148.544278,33.5619204 146.637978,31.6518204 144.563778,29.8275204 L145.477838,28.1673204 C147.802038,24.1829204 146.473928,19.1204204 142.489538,16.7963204 L127.384538,8.08152043 C123.400138,5.83932043 118.337638,7.16746043 116.013538,11.1518204 L115.017448,12.8120204 C112.443248,11.9839004 109.872948,11.3198204 107.216648,10.8198204 L107.216648,8.74562043 C107.216648,4.17922043 103.482248,0.44482043 98.9158477,0.44482043 L81.4858477,0.44482043 C76.9194477,0.44482043 73.1850477,4.17922043 73.1850477,8.74562043 L73.1850477,10.8198204 C70.5288477,11.3159104 67.9545477,12.0659204 65.3842477,12.8940204 L64.3881577,11.1518204 C62.0639577,7.16742043 57.0014577,5.83932043 53.0171577,8.08152043 L37.9121577,16.7963204 C34.0098577,19.1205204 32.5996577,24.1830204 34.9238577,28.1673204 L35.9199477,29.9095204 C33.8457477,31.6517204 31.9355477,33.5618204 30.1113477,35.6361204 L28.4511477,34.6400304 C24.4667477,32.3158304 19.4042477,33.6439404 17.0801477,37.6283304 L8.36534773,52.7333304 C6.12314773,56.7177304 7.45128773,61.7802304 11.4356477,64.1043304 L13.0137477,65.0183904 C12.1856277,67.5925904 11.5215477,70.2488904 10.9395477,72.9050904 L9.11534773,72.9050904 C4.46694773,72.9050904 0.814547734,76.6394904 0.814547734,81.2058904 L0.814547734,98.6358904 C0.814547734,103.20229 4.46684773,106.93669 9.11534773,106.93669 L10.9395477,106.93669 C11.5215777,109.59289 12.1856477,112.24919 13.0957477,114.81949 L11.4355477,115.73355 C7.45114773,118.05775 6.12304773,123.12025 8.36524773,127.10455 L17.0800477,142.20955 C19.4042477,146.11185 24.4667477,147.52205 28.4510477,145.19785 L30.1932477,144.20176 C32.0213477,146.27596 33.9276477,148.18616 35.9198477,149.92836 L34.9237577,151.67056 C32.5995577,155.65496 34.0096977,160.71746 37.9120577,163.04156 L53.0170577,171.75636 C57.0014577,173.99856 62.0639577,172.67042 64.3880577,168.68606 L65.4661577,166.85796 C67.9583577,167.68608 70.5286577,168.43606 73.1849577,168.93216 L73.1849577,171.00636 C73.1849577,175.65476 76.9193577,179.30716 81.4857577,179.30716 L98.9157577,179.30716 C103.482158,179.30716 107.216558,175.65486 107.216558,171.00636 L107.216558,168.93216 C109.872758,168.43607 112.447058,167.76806 115.017358,166.93996 L116.013448,168.68216 C118.337648,172.66656 123.400148,173.99466 127.384448,171.75246 L142.489448,163.03766 C146.473848,160.71346 147.801948,155.65096 145.477748,151.66666 L144.481658,149.92446 C146.555858,148.18226 148.466058,146.35416 150.290258,144.27996 L151.950458,145.19402 C155.934858,147.51822 160.997358,146.10808 163.321458,142.20572 L172.036258,127.10072 C174.278458,123.11632 172.950318,118.05382 168.965958,115.72972 L167.473758,114.89769 C168.387818,112.32349 169.051858,109.66719 169.629958,106.92889 L171.372158,106.92889 C175.938558,106.92889 179.672958,103.19449 179.672958,98.6280904 L179.672958,81.1980904 C179.669052,76.6394904 175.934658,72.9050904 171.372158,72.9050904 L171.372178,72.9051904 Z M90.1961777,128.43219 C68.7821777,128.43219 51.4341777,111.16619 51.4341777,89.8381904 C51.4341777,68.5881904 68.7821777,51.2401904 90.1961777,51.2401904 C111.610178,51.2401904 129.040178,68.5881904 129.040178,89.8381904 C129.040178,111.16619 111.610178,128.43219 90.1961777,128.43219 Z" id="Shape" fill="#FF8300"></path>
                <path d="M90.1921777,59.5451904 C73.3801777,59.5451904 59.7081777,73.1391904 59.7081777,89.8541904 C59.7081777,106.56919 73.3841777,120.16319 90.1921777,120.16319 C107.051178,120.16319 120.774178,106.56919 120.774178,89.8541904 C120.774178,73.1391904 107.051178,59.5451904 90.1921777,59.5451904 Z" id="Shape" fill="#FFFFFF"></path>
            </g>
            <path d="M333,491 C337.140138,429.492505 344.140138,369.159171 354,310 C360.666667,270 369,214.666667 379,144 C371.0469,145.5586 347.459178,155.92959 341.627178,158.73039 C331.787378,163.45309 326.56116,166.472023 305.39316,166.472023 C284.22516,166.472023 273.07716,161.124323 263.22116,156.394023 C253.78366,151.862823 245.63516,147.960423 228.25616,147.960423 C210.87316,147.960423 202.72516,151.870623 193.29516,156.397923 C183.46706,161.124523 172.33016,166.471923 151.17016,166.471923 C130.00616,166.471923 106.9614,150.586 101,149 C109.707693,208.351947 114.707693,265.018613 116,319 C116.622437,345 117.95577,402.333333 120,491 C166.913003,491.114461 203.246336,491.114461 229,491 C254.753664,490.885539 289.42033,490.885539 333,491 Z" id="Shape" fill="#FFFFFF"></path>
            <path d="M507.537193,180.675802 L515.839609,180.675802 C520.014257,180.72267 524.095146,182.737972 526.589256,186.484108 L540.027386,206.543602 C540.556333,205.920923 541.132175,205.294919 541.707924,204.719084 C548.138943,198.334944 556.970657,194.401377 566.614744,194.401377 C576.309395,194.401377 585.141023,198.338372 591.521564,204.719084 C597.952573,211.150094 601.88614,219.98155 601.88614,229.672773 C601.88614,239.321145 597.949145,248.149345 591.517868,254.579593 C589.790451,256.353889 587.821954,257.940754 585.709562,259.283196 L607.788204,366.359724 C608.507967,369.094829 608.364021,372.117894 607.115303,374.903221 C604.236218,381.431341 596.603052,384.407613 590.078531,381.5251 L566.272987,371.012848 L543.381029,380.707499 C540.980678,381.812288 538.198693,382.193921 535.413367,381.618087 C528.406513,380.178544 523.894112,373.36255 525.333055,366.355353 L547.217153,259.09028 C545.248655,257.794717 543.377258,256.258074 541.696721,254.577536 C540.019474,256.736841 537.763102,258.51448 535.171977,259.522168 C535.195244,260.451169 402.640236,269.657336 270.537698,270.153909 C136.530339,270.657642 56.6669049,266.546202 56.9821777,263.69519 C52.567592,262.15969 46.9560367,237.829474 40.1475118,190.704544 C41.4899536,184.946374 46.6254104,180.674797 52.7688984,180.674797 L76.9821777,185.69519 C78.6773853,183.371893 151.803407,190.838737 270.537698,190.704544 C387.222984,190.572667 505.34829,177.77369 507.537193,180.675802 Z" id="Headband" fill="#FF8300"></path>
        </g>
    </g>
</svg>